<?xml version="1.0" encoding="UTF-8"?>
<!DOCTYPE svg PUBLIC "-//W3C//DTD SVG 1.1//EN" "http://www.w3.org/Graphics/SVG/1.1/DTD/svg11.dtd">
<svg xmlns="http://www.w3.org/2000/svg" version="1.1" width="88px" height="396px" style="shape-rendering:geometricPrecision; text-rendering:geometricPrecision; image-rendering:optimizeQuality; fill-rule:evenodd; clip-rule:evenodd" xmlns:xlink="http://www.w3.org/1999/xlink">
<g><path style="opacity:0.098" fill="#f51f29" d="M -0.5,11.5 C 14.6258,23.4538 29.6258,35.6205 44.5,48C 53.3333,55.5 61.5,63.6667 69,72.5C 77.4026,89.0568 79.4026,106.39 75,124.5C 73.8225,129.543 72.4892,134.543 71,139.5C 70.3333,143.167 70.3333,146.833 71,150.5C 79.5142,161.563 85.0142,173.896 87.5,187.5C 87.5,192.833 87.5,198.167 87.5,203.5C 83.6304,218.237 76.7971,231.57 67,243.5C 45.1979,271.456 22.6979,298.789 -0.5,325.5C -0.5,292.833 -0.5,260.167 -0.5,227.5C 21.9457,202.39 43.2791,176.39 63.5,149.5C 63.3782,145.488 61.7116,142.321 58.5,140C 38.9596,123.621 19.293,107.455 -0.5,91.5C -0.5,64.8333 -0.5,38.1667 -0.5,11.5 Z"/></g>
</svg>
