<?xml version="1.0" encoding="UTF-8"?>
<!DOCTYPE svg PUBLIC "-//W3C//DTD SVG 1.1//EN" "http://www.w3.org/Graphics/SVG/1.1/DTD/svg11.dtd">
<svg xmlns="http://www.w3.org/2000/svg" version="1.1" width="110px" height="409px" style="shape-rendering:geometricPrecision; text-rendering:geometricPrecision; image-rendering:optimizeQuality; fill-rule:evenodd; clip-rule:evenodd" xmlns:xlink="http://www.w3.org/1999/xlink">
<g><path style="opacity:0.098" fill="#f51f29" d="M 109.5,25.5 C 109.5,64.1667 109.5,102.833 109.5,141.5C 81.725,183.53 55.0584,226.363 29.5,270C 29.911,273.496 31.5777,276.163 34.5,278C 59.3849,293.725 84.3849,309.225 109.5,324.5C 109.5,348.833 109.5,373.167 109.5,397.5C 86.5186,384.343 64.1853,370.177 42.5,355C 30.2852,345.072 23.4519,332.239 22,316.5C 21.4822,302.123 21.8155,287.789 23,273.5C 18.0293,266.521 13.0293,259.521 8,252.5C 4.24803,245.393 1.41469,238.06 -0.5,230.5C -0.5,223.833 -0.5,217.167 -0.5,210.5C 4.39032,195.046 11.2237,180.379 20,166.5C 48.8587,118.759 78.692,71.7591 109.5,25.5 Z"/></g>
</svg>
