<?xml version="1.0" encoding="UTF-8"?>
<!DOCTYPE svg PUBLIC "-//W3C//DTD SVG 1.1//EN" "http://www.w3.org/Graphics/SVG/1.1/DTD/svg11.dtd">
<svg xmlns="http://www.w3.org/2000/svg" version="1.1" width="50px" height="50px" style="shape-rendering:geometricPrecision; text-rendering:geometricPrecision; image-rendering:optimizeQuality; fill-rule:evenodd; clip-rule:evenodd" xmlns:xlink="http://www.w3.org/1999/xlink">
<g><path style="opacity:0.889" fill="#051850" d="M 2.5,-0.5 C 3.16667,-0.5 3.83333,-0.5 4.5,-0.5C 4.33788,1.5273 4.50454,3.5273 5,5.5C 5.49001,4.20677 5.65668,2.87344 5.5,1.5C 6.5,1.5 7.5,1.5 8.5,1.5C 8.2011,3.60395 8.53443,5.60395 9.5,7.5C 16.5613,1.7771 24.0613,1.11043 32,5.5C 32.8333,4.66667 33.6667,3.83333 34.5,3C 39.4889,2.50074 44.4889,2.33407 49.5,2.5C 49.5,3.16667 49.5,3.83333 49.5,4.5C 45.1539,4.33432 40.8206,4.50098 36.5,5C 35.8333,5.66667 35.1667,6.33333 34.5,7C 36.0703,8.39683 37.4036,9.89683 38.5,11.5C 40.0897,15.3071 40.423,19.1404 39.5,23C 43.342,27.0845 44.342,31.7511 42.5,37C 44.7032,39.3722 47.0365,41.5389 49.5,43.5C 49.5,45.1667 49.5,46.8333 49.5,48.5C 48.8333,48.5 48.5,48.8333 48.5,49.5C 46.8333,49.5 45.1667,49.5 43.5,49.5C 42.0401,47.5372 40.3734,45.7038 38.5,44C 31.1667,46 25.1667,44 20.5,38C 16.9382,37.2611 13.7716,35.7611 11,33.5C 8.8975,35.3025 8.06416,37.6359 8.5,40.5C 11.1873,40.3359 13.854,40.5026 16.5,41C 16.9574,41.414 17.2907,41.914 17.5,42.5C 14.2317,43.487 10.8984,43.8204 7.5,43.5C 7.16667,39.5 6.83333,39.5 6.5,43.5C 4.16667,43.5 1.83333,43.5 -0.5,43.5C -0.5,42.5 -0.5,41.5 -0.5,40.5C 1.5,40.5 3.5,40.5 5.5,40.5C 4.81442,36.713 5.81442,33.5463 8.5,31C 6.76512,28.3632 5.43179,25.5299 4.5,22.5C 7.83333,21.1667 11.1667,21.1667 14.5,22.5C 15.4688,25.3017 17.3021,27.3017 20,28.5C 22.7682,24.2276 26.2682,20.8943 30.5,18.5C 28.3264,11.7495 23.9931,9.9162 17.5,13C 15.6469,15.0398 14.3136,17.3731 13.5,20C 10.5184,20.498 7.51838,20.6646 4.5,20.5C 4.59648,17.0441 5.59648,13.8774 7.5,11C 5.34749,8.83494 2.68082,8.0016 -0.5,8.5C -0.5,6.83333 -0.5,5.16667 -0.5,3.5C 0.749754,3.57735 1.58309,4.24402 2,5.5C 2.49546,3.5273 2.66212,1.5273 2.5,-0.5 Z M 18.5,6.5 C 19.7933,5.84182 21.2933,5.50848 23,5.5C 25.4697,5.34026 27.6364,6.00693 29.5,7.5C 29,8.5 28.5,9.5 28,10.5C 25.6757,9.15517 23.3423,8.82183 21,9.5C 20.1482,8.42925 19.3149,7.42925 18.5,6.5 Z M 12.5,8.5 C 15.3983,12.1027 14.7317,12.9361 10.5,11C 11.3805,10.2917 12.0472,9.45837 12.5,8.5 Z M 33.5,10.5 C 36.3888,13.4909 37.7221,17.1576 37.5,21.5C 36.1779,21.67 35.0113,21.3366 34,20.5C 33.6253,17.9999 32.7919,15.6666 31.5,13.5C 32.1925,12.4822 32.8592,11.4822 33.5,10.5 Z M 7.5,15.5 C 8.92167,15.7086 10.255,16.2086 11.5,17C 9.53722,17.8442 8.20389,17.3442 7.5,15.5 Z M 7.5,24.5 C 8.60093,23.4017 9.93426,23.235 11.5,24C 12.8163,25.9776 12.3163,27.4776 10,28.5C 9.3918,26.9336 8.55847,25.6002 7.5,24.5 Z M 28.5,26.5 C 37.8176,26.6546 39.8176,30.488 34.5,38C 25.0959,38.141 23.0959,34.3076 28.5,26.5 Z M 15.5,29.5 C 18.4841,29.7868 19.8174,31.4535 19.5,34.5C 17.1579,34.4959 15.1579,33.6625 13.5,32C 14.756,31.5831 15.4226,30.7498 15.5,29.5 Z M 40.5,40.5 C 43.2254,41.713 45.5588,43.5464 47.5,46C 47,46.5 46.5,47 46,47.5C 43.5464,45.5588 41.713,43.2254 40.5,40.5 Z"/></g>
<g><path style="opacity:0.18" fill="#061750" d="M 49.5,5.5 C 49.5,6.16667 49.5,6.83333 49.5,7.5C 48.1667,8.16667 48.1667,8.83333 49.5,9.5C 49.5,10.1667 49.5,10.8333 49.5,11.5C 45.8333,11.5 42.1667,11.5 38.5,11.5C 38.5,9.5 38.5,7.5 38.5,5.5C 40.1667,5.5 41.8333,5.5 43.5,5.5C 43.8333,9.5 44.1667,9.5 44.5,5.5C 46.1667,5.5 47.8333,5.5 49.5,5.5 Z"/></g>
<g><path style="opacity:0.753" fill="#061850" d="M -0.5,44.5 C 23.5,45.1667 23.5,45.8333 -0.5,46.5C -0.5,45.8333 -0.5,45.1667 -0.5,44.5 Z"/></g>
</svg>
