<?xml version="1.0" encoding="UTF-8"?>
<!DOCTYPE svg PUBLIC "-//W3C//DTD SVG 1.1//EN" "http://www.w3.org/Graphics/SVG/1.1/DTD/svg11.dtd">
<svg xmlns="http://www.w3.org/2000/svg" version="1.1" width="60px" height="58px" style="shape-rendering:geometricPrecision; text-rendering:geometricPrecision; image-rendering:optimizeQuality; fill-rule:evenodd; clip-rule:evenodd" xmlns:xlink="http://www.w3.org/1999/xlink">
<g><path style="opacity:0.929" fill="#051850" d="M 3.5,-0.5 C 19.5,-0.5 35.5,-0.5 51.5,-0.5C 53.1436,0.316435 54.3103,1.64977 55,3.5C 55.3333,12.8333 55.6667,22.1667 56,31.5C 57.5834,33.6987 57.7501,36.032 56.5,38.5C 57.5,38.5 58.5,38.5 59.5,38.5C 59.5,40.8333 59.5,43.1667 59.5,45.5C 56.7027,46.3548 56.036,48.0215 57.5,50.5C 56.2199,54.3883 53.7199,55.7216 50,54.5C 48.6898,55.1301 47.8565,56.1301 47.5,57.5C 45.1667,57.5 42.8333,57.5 40.5,57.5C 40.5,56.5 40.5,55.5 40.5,54.5C 33.5,56.1667 30.8333,53.5 32.5,46.5C 28.4454,46.8242 24.4454,46.4909 20.5,45.5C 20.7093,44.914 21.0426,44.414 21.5,44C 23.8098,43.5034 26.1432,43.3367 28.5,43.5C 28.1966,40.4124 29.5299,38.7458 32.5,38.5C 30.8333,31.5 33.5,28.8333 40.5,30.5C 43.1285,25.2012 46.1285,25.2012 49.5,30.5C 50.1667,30.1667 50.8333,29.8333 51.5,29.5C 52.4892,25.8927 52.8226,22.226 52.5,18.5C 35.8333,18.5 19.1667,18.5 2.5,18.5C 2.33365,26.1739 2.50031,33.8406 3,41.5C 3.5,42 4,42.5 4.5,43C 7.48162,43.498 10.4816,43.6646 13.5,43.5C 13.5,44.5 13.5,45.5 13.5,46.5C 9.81826,46.6653 6.15159,46.4986 2.5,46C 1.62656,44.955 0.626561,44.1217 -0.5,43.5C -0.5,29.8333 -0.5,16.1667 -0.5,2.5C 0.871651,1.48837 2.20498,0.488369 3.5,-0.5 Z M 3.5,3.5 C 19.5139,3.16724 35.5139,3.50058 51.5,4.5C 52.4259,8.09377 52.7592,11.7604 52.5,15.5C 35.8333,15.5 19.1667,15.5 2.5,15.5C 2.23674,11.3998 2.57007,7.39977 3.5,3.5 Z M 43.5,30.5 C 45.2858,32.5623 47.6191,33.8957 50.5,34.5C 51.451,33.6744 52.451,33.5078 53.5,34C 52.046,37.6098 53.046,40.4431 56.5,42.5C 53.2108,44.3968 52.2108,47.0635 53.5,50.5C 49.8268,49.8503 46.8268,51.1836 44.5,54.5C 42.4431,51.046 39.6098,50.046 36,51.5C 37.1165,47.7165 35.9498,44.7165 32.5,42.5C 35.5006,40.4912 36.5006,37.8245 35.5,34.5C 37.7598,34.7672 40.0931,34.2672 42.5,33C 43.2524,32.3292 43.5858,31.4959 43.5,30.5 Z"/></g>
</svg>
